<?xml version="1.0" encoding="utf-8"?>
<!-- Generator: Adobe Illustrator 16.0.0, SVG Export Plug-In . SVG Version: 6.00 Build 0)  -->
<!DOCTYPE svg PUBLIC "-//W3C//DTD SVG 1.1//EN" "http://www.w3.org/Graphics/SVG/1.1/DTD/svg11.dtd">
<svg version="1.1" id="Layer_1" xmlns="http://www.w3.org/2000/svg" xmlns:xlink="http://www.w3.org/1999/xlink" x="0px" y="0px"
	 width="30px" height="29.999px" viewBox="0 0 30 29.999" enable-background="new 0 0 30 29.999" xml:space="preserve">
<path fill="#D92027" d="M11.502,19.314l-0.468,2.734c-0.063,0.373,0.092,0.75,0.403,0.973c0.312,0.222,0.725,0.252,1.065,0.077
	L15,21.815l2.497,1.283c0.148,0.076,0.309,0.114,0.47,0.114c0.21,0,0.419-0.065,0.596-0.19c0.311-0.223,0.467-0.6,0.403-0.973
	l-0.467-2.734l2.011-1.942c0.275-0.265,0.373-0.66,0.254-1.021c-0.118-0.36-0.435-0.624-0.815-0.678l-2.786-0.407l-1.254-2.482
	c-0.17-0.339-0.523-0.554-0.908-0.554c-0.384,0-0.736,0.214-0.908,0.554l-1.254,2.482l-2.786,0.407
	c-0.381,0.055-0.696,0.319-0.815,0.679s-0.021,0.756,0.254,1.021L11.502,19.314z"/>
<path fill="#D92027" d="M26.974,3.189h-3.19V1.448c0-0.799-0.658-1.448-1.47-1.448H22.08c-0.813,0-1.47,0.648-1.47,1.448v1.741
	H9.354V1.448C9.354,0.648,8.695,0,7.883,0H7.65C6.837,0,6.18,0.648,6.18,1.448v1.741H3.026C1.358,3.189,0,4.525,0,6.168v20.852
	c0,1.642,1.358,2.979,3.026,2.979h23.947c1.668,0,3.026-1.337,3.026-2.979V6.168C30,4.525,28.642,3.189,26.974,3.189z
	 M26.579,26.632H3.421V10.4h23.157V26.632z"/>
</svg>
