<?xml version="1.0" encoding="utf-8"?>
<!-- Generator: Adobe Illustrator 16.0.0, SVG Export Plug-In . SVG Version: 6.00 Build 0)  -->
<!DOCTYPE svg PUBLIC "-//W3C//DTD SVG 1.1//EN" "http://www.w3.org/Graphics/SVG/1.1/DTD/svg11.dtd">
<svg version="1.1" id="Layer_1" xmlns="http://www.w3.org/2000/svg" xmlns:xlink="http://www.w3.org/1999/xlink" x="0px" y="0px"
	 width="25px" height="25px" viewBox="0 0 25 25" enable-background="new 0 0 25 25" xml:space="preserve">
<path fill="#FFFFFF" d="M19.922,2.344c-0.668,0-1.321,0.133-1.932,0.391C16.771,1.042,14.734,0,12.5,0
	c-2.233,0-4.271,1.042-5.491,2.734c-0.61-0.258-1.263-0.391-1.931-0.391C2.278,2.344,0,4.622,0,7.423
	c0,2.395,1.67,4.405,3.906,4.935v10.298C3.906,23.952,4.955,25,6.25,25h12.5c1.294,0,2.344-1.048,2.344-2.344V12.358
	C23.329,11.827,25,9.818,25,7.423C25,4.622,22.722,2.344,19.922,2.344z M18.75,22.656H6.25v-1.562h12.5V22.656z M18.75,18.75H6.25
	v-6.403c0.819-0.196,1.581-0.577,2.209-1.14C9.61,12.039,11.027,12.5,12.5,12.5s2.891-0.461,4.041-1.293
	c0.627,0.563,1.389,0.944,2.209,1.14V18.75z M19.922,10.156c-0.923,0-1.779-0.466-2.289-1.247c-0.197-0.303-0.523-0.497-0.883-0.528
	c-0.032-0.002-0.064-0.004-0.098-0.004c-0.325,0-0.638,0.136-0.861,0.377c-0.821,0.892-2.021,1.401-3.291,1.401
	s-2.47-0.51-3.291-1.401C8.964,8.49,8.612,8.356,8.25,8.381C7.89,8.412,7.564,8.606,7.367,8.909
	c-0.51,0.781-1.364,1.247-2.289,1.247c-1.508,0-2.734-1.227-2.734-2.733c0-1.508,1.227-2.735,2.734-2.735
	c0.589,0,1.159,0.198,1.649,0.572C7.013,5.478,7.382,5.552,7.73,5.464C8.078,5.375,8.366,5.13,8.512,4.802
	c0.658-1.494,2.224-2.458,3.988-2.458s3.331,0.964,3.989,2.458c0.145,0.328,0.433,0.573,0.781,0.663
	c0.348,0.087,0.717,0.014,1.002-0.205c0.49-0.375,1.061-0.573,1.649-0.573c1.507,0,2.734,1.227,2.734,2.735
	C22.656,8.929,21.429,10.156,19.922,10.156z"/>
</svg>
