<?xml version="1.0" encoding="utf-8"?>
<!-- Generator: Adobe Illustrator 16.0.0, SVG Export Plug-In . SVG Version: 6.00 Build 0)  -->
<!DOCTYPE svg PUBLIC "-//W3C//DTD SVG 1.1//EN" "http://www.w3.org/Graphics/SVG/1.1/DTD/svg11.dtd">
<svg version="1.1" id="Layer_1" xmlns="http://www.w3.org/2000/svg" xmlns:xlink="http://www.w3.org/1999/xlink" x="0px" y="0px"
	 width="30.007px" height="30.006px" viewBox="0 0 30.007 30.006" enable-background="new 0 0 30.007 30.006" xml:space="preserve">
<path fill="#D92027" d="M29.076,27.437c0.469,0.425,0.63,1.471,0.025,2.071c-0.602,0.605-1.649,0.446-2.073-0.023
	c-3.93-4.219-7.858-8.439-11.788-12.661l-0.446-0.477c-4.11,4.412-8.22,8.828-12.329,13.242c-0.423,0.469-1.469,0.629-2.07,0.023
	c-0.606-0.601-0.446-1.648,0.022-2.073c4.429-4.12,8.855-8.241,13.283-12.362c0,0-2.143-2.312-3.067-3.304
	c-2.163,1.551-5.367,0.961-7.294-1.418C1.268,7.946-0.52,3.458,1.21,1.621C3.05-0.11,7.535,1.68,10.044,3.75
	c2.378,1.928,2.971,5.128,1.417,7.292c1.114,1.037,2.227,2.072,3.342,3.108c-0.002,0.002-0.003,0.003-0.006,0.005
	c0,0,0.07,0.055,0.006-0.005c1.042-0.97,2.084-1.939,3.126-2.91c-0.881-1.502-0.296-3.61,1.134-4.813
	c1.64-1.374,7.715-6.59,7.879-6.424c0.163,0.162-4.099,4.188-6.946,7.043l0.475,0.474c3.039-2.663,7.329-6.656,7.495-6.494
	c0.163,0.163-3.966,4.32-6.719,7.271l0.471,0.471c2.946-2.756,7.105-6.884,7.266-6.723C29.148,2.21,25.154,6.5,22.49,9.539
	l0.471,0.471c2.854-2.847,6.878-7.107,7.042-6.947c0.165,0.165-6.414,7.872-6.422,7.884c-0.001-0.002,1.396-1.642-0.005-0.004
	c-1.337,1.564-3.335,2.038-4.813,1.137c-0.959,1.029-1.916,2.057-2.874,3.086C15.806,15.086,24.682,23.346,29.076,27.437z"/>
</svg>
