<?xml version="1.0" encoding="utf-8"?>
<!-- Generator: Adobe Illustrator 16.0.0, SVG Export Plug-In . SVG Version: 6.00 Build 0)  -->
<!DOCTYPE svg PUBLIC "-//W3C//DTD SVG 1.1//EN" "http://www.w3.org/Graphics/SVG/1.1/DTD/svg11.dtd">
<svg version="1.1" id="Layer_1" xmlns="http://www.w3.org/2000/svg" xmlns:xlink="http://www.w3.org/1999/xlink" x="0px" y="0px"
	 width="29.999px" height="32.006px" viewBox="0 0 29.999 32.006" enable-background="new 0 0 29.999 32.006" xml:space="preserve">
<path fill="#D92027" d="M2.808,16.834c0,2.107,0.523,4.091,1.443,5.827l9.653-5.642l-9.797-5.727
	C3.278,12.96,2.808,14.841,2.808,16.834z M5.864,19.883c-0.307,0.148-0.632,0.242-0.96,0.325c-0.146,0.037-0.539,0.105-0.598-0.116
	c-0.058-0.218,0.315-0.367,0.46-0.403c0.237-0.061,0.462-0.125,0.684-0.23c0.177-0.085,0.539-0.16,0.699,0.005
	C6.319,19.64,5.979,19.828,5.864,19.883z M10.049,16.059c0.458,0,0.829,0.375,0.829,0.838c0,0.464-0.371,0.838-0.829,0.838
	c-0.457,0-0.828-0.375-0.828-0.838C9.22,16.434,9.591,16.059,10.049,16.059z M7.764,17.318c0,0.696-0.558,1.26-1.245,1.26
	c-0.687,0-1.245-0.563-1.245-1.26c0-0.696,0.558-1.26,1.245-1.26S7.764,16.622,7.764,17.318z M5.273,12.969
	c0.458,0,0.829,0.375,0.829,0.838s-0.371,0.838-0.829,0.838c-0.457,0-0.828-0.375-0.828-0.838
	C4.446,13.345,4.816,12.969,5.273,12.969z M3.728,16.603c-0.711,0,0.094-0.521,0.434-0.521C4.872,16.082,4.067,16.603,3.728,16.603z
	"/>
<path fill="#D92027" d="M14.452,3.882V1.664C9.291,1.852,4.788,4.69,2.233,8.875l1.899,1.11C6.306,6.463,10.1,4.069,14.452,3.882z"
	/>
<path fill="#D92027" d="M26.963,8.321l1.899-1.11C26.309,3.026,21.805,0.188,16.644,0v2.218C20.995,2.405,24.789,4.799,26.963,8.321
	z"/>
<path fill="#D92027" d="M27.634,25.002l-1.898-1.11c-2.194,3.408-5.924,5.711-10.188,5.894v2.219
	C20.622,31.819,25.059,29.071,27.634,25.002z"/>
<path fill="#D92027" d="M26.407,10.951c0.893,1.767,1.4,3.766,1.4,5.883c0,2.207-0.548,4.284-1.512,6.104l1.9,1.111
	c1.15-2.148,1.804-4.605,1.804-7.215c0-2.521-0.614-4.899-1.692-6.995L26.407,10.951z"/>
<path fill="#D92027" d="M3.704,22.938c-0.963-1.82-1.512-3.898-1.512-6.104c0-2.118,0.507-4.117,1.4-5.885l-1.899-1.11
	C0.614,11.935,0,14.313,0,16.834c0,2.609,0.654,5.067,1.804,7.214L3.704,22.938z"/>
<path fill="#D92027" d="M14.452,32.006v-2.219c-4.265-0.183-7.995-2.486-10.188-5.894l-1.899,1.11
	C4.94,29.071,9.378,31.819,14.452,32.006z"/>
<path fill="#D92027" d="M14.452,4.507c-4.144,0.186-7.749,2.464-9.81,5.818l9.81,5.734V4.507z M8.408,10.668
	c-0.687,0-1.244-0.564-1.244-1.26c0-0.696,0.557-1.26,1.244-1.26c0.688,0,1.245,0.564,1.245,1.26
	C9.653,10.104,9.095,10.668,8.408,10.668z M12.122,12.969c-0.457,0-0.828-0.375-0.828-0.838s0.371-0.838,0.828-0.838
	c0.458,0,0.829,0.375,0.829,0.838C12.95,12.594,12.579,12.969,12.122,12.969z M12.089,9.85c-0.158-0.198-0.336-0.3-0.576-0.365
	c-0.24-0.066-0.288-0.325-0.133-0.502c0.181-0.208,0.491-0.274,0.749-0.203c0.372,0.103,0.688,0.3,0.931,0.605
	C13.392,9.8,12.382,10.217,12.089,9.85z M12.506,7.859c-0.457,0-0.828-0.375-0.828-0.838c0-0.463,0.371-0.838,0.828-0.838
	c0.458,0,0.829,0.375,0.829,0.838C13.334,7.485,12.963,7.859,12.506,7.859z"/>
<path fill="#D92027" d="M27.191,16.834c0-1.993-0.47-3.875-1.298-5.542l-9.797,5.727l9.653,5.642
	C26.669,20.925,27.191,18.941,27.191,16.834z M25.537,13.258c0.708,0-0.129,0.483-0.445,0.483
	C24.384,13.741,25.222,13.258,25.537,13.258z M20.368,17.815c-0.457,0-0.828-0.375-0.828-0.838s0.371-0.838,0.828-0.838
	s0.828,0.375,0.828,0.838C21.195,17.44,20.825,17.815,20.368,17.815z M22.644,16.126c0.517,0-0.469,0.432-0.688,0.432
	C21.439,16.559,22.426,16.126,22.644,16.126z M22.167,18.882c-0.716,0-0.014-0.642,0.403-0.642
	C23.287,18.24,22.585,18.882,22.167,18.882z M24.349,20.984c-0.457,0-0.827-0.375-0.827-0.838c0-0.463,0.37-0.838,0.827-0.838
	c0.458,0,0.829,0.375,0.829,0.838C25.178,20.609,24.807,20.984,24.349,20.984z M24.766,17.672c-0.687,0-1.245-0.565-1.245-1.261
	c0-0.696,0.558-1.26,1.245-1.26c0.688,0,1.245,0.564,1.245,1.26S25.453,17.672,24.766,17.672z"/>
<path fill="#D92027" d="M14.452,29.163V17.98l-9.639,5.633C6.899,26.82,10.42,28.982,14.452,29.163z M12.704,28.27
	c-0.713,0,0.063-0.556,0.425-0.556C13.843,27.713,13.066,28.27,12.704,28.27z M12.506,20.984c0.458,0,0.829,0.375,0.829,0.838
	c0,0.463-0.371,0.838-0.829,0.838c-0.457,0-0.828-0.375-0.828-0.838C11.678,21.359,12.049,20.984,12.506,20.984z M10.376,22.946
	c0.717,0,0.033,0.661-0.397,0.661C9.262,23.607,9.945,22.946,10.376,22.946z M10.877,24.049c0.688,0,1.245,0.564,1.245,1.26
	s-0.557,1.259-1.245,1.259c-0.688,0-1.245-0.563-1.245-1.259C9.632,24.613,10.189,24.049,10.877,24.049z M7.347,23.083
	c0.457,0,0.828,0.375,0.828,0.838c0,0.464-0.371,0.838-0.828,0.838s-0.828-0.374-0.828-0.838C6.519,23.458,6.89,23.083,7.347,23.083
	z"/>
<path fill="#D92027" d="M25.187,23.613l-9.639-5.633v11.182C19.58,28.982,23.101,26.82,25.187,23.613z M17.328,27.407
	c-0.457,0-0.828-0.375-0.828-0.838c0-0.462,0.371-0.838,0.828-0.838c0.458,0,0.829,0.375,0.829,0.838
	C18.157,27.033,17.786,27.407,17.328,27.407z M17.889,23.921c-0.688,0-1.246-0.563-1.246-1.259c0-0.697,0.558-1.261,1.246-1.261
	c0.688,0,1.245,0.564,1.245,1.261C19.134,23.358,18.576,23.921,17.889,23.921z M19.147,25.778c-0.515,0,0.474-0.426,0.689-0.426
	C20.352,25.352,19.363,25.778,19.147,25.778z M22.276,24.888c-0.458,0-0.828-0.375-0.828-0.838c0-0.463,0.371-0.838,0.828-0.838
	c0.458,0,0.828,0.375,0.828,0.838C23.104,24.512,22.734,24.888,22.276,24.888z"/>
<path fill="#D92027" d="M16.643,2.843v11.552l9.81-5.734C24.392,5.307,20.787,3.028,16.643,2.843z M19.819,4.507
	c0.457,0,0.828,0.375,0.828,0.838c0,0.463-0.372,0.838-0.828,0.838c-0.457,0-0.829-0.375-0.829-0.838
	C18.99,4.881,19.361,4.507,19.819,4.507z M18.043,3.722c0.716,0,0.063,0.694-0.389,0.694C16.938,4.417,17.59,3.722,18.043,3.722z
	 M18.573,11.543c-0.688,0-1.245-0.564-1.245-1.26c0-0.696,0.558-1.26,1.245-1.26c0.688,0,1.246,0.564,1.246,1.26
	C19.819,10.979,19.261,11.543,18.573,11.543z M19.849,7.803c-0.209,0.167-0.535,0.213-0.761,0.056
	c-0.234-0.163-0.527-0.203-0.8-0.257c-0.229-0.046-0.443-0.229-0.332-0.486c0.105-0.245,0.435-0.388,0.687-0.337
	c0.439,0.088,0.878,0.175,1.254,0.436C20.12,7.37,20.029,7.66,19.849,7.803z M20.534,9.766c-0.717,0-0.081-0.713,0.383-0.713
	C21.633,9.052,20.997,9.766,20.534,9.766z M22.276,8.601c-0.458,0-0.828-0.375-0.828-0.838c0-0.463,0.371-0.838,0.828-0.838
	c0.458,0,0.828,0.375,0.828,0.838C23.104,8.226,22.734,8.601,22.276,8.601z M23.737,8.236c-0.515,0,0.473-0.427,0.689-0.427
	C24.94,7.808,23.953,8.236,23.737,8.236z"/>
</svg>
